<svg width="18" height="18" viewBox="0 0 18 18" fill="none" xmlns="http://www.w3.org/2000/svg">
<path d="M6.10311 9.55688C6.10311 9.64313 6.13686 9.72 6.20436 9.7875L10.8956 14.4788C10.9631 14.5463 11.04 14.58 11.1262 14.58C11.2125 14.58 11.2894 14.5463 11.3569 14.4788L11.8631 13.9725C11.9306 13.905 11.9644 13.83 11.9644 13.7475C11.9644 13.665 11.9306 13.5863 11.8631 13.5113L7.90873 9.55688L11.8631 5.6025C11.9306 5.535 11.9644 5.45625 11.9644 5.36625C11.9644 5.27625 11.9306 5.20125 11.8631 5.14125L11.3569 4.635C11.2931 4.5675 11.2181 4.53375 11.1319 4.53375C11.0456 4.53375 10.9669 4.5675 10.8956 4.635L6.20436 9.32063C6.13686 9.38813 6.10311 9.46688 6.10311 9.55688Z" fill="#FDFDFD"/>
</svg>
