<svg width="18" height="19" viewBox="0 0 18 19" fill="none" xmlns="http://www.w3.org/2000/svg">
<g clip-path="url(#clip0_26_925)">
<path d="M11.8969 10.4659C11.8969 10.5522 11.8631 10.6291 11.7956 10.6966L7.10436 15.3878C7.03686 15.4553 6.95999 15.4891 6.87374 15.4891C6.78749 15.4891 6.71061 15.4553 6.64311 15.3878L6.13686 14.8816C6.06936 14.8141 6.03561 14.7391 6.03561 14.6566C6.03561 14.5741 6.06936 14.4953 6.13686 14.4203L10.0912 10.4659L6.13686 6.51156C6.06936 6.44406 6.03561 6.36531 6.03561 6.27531C6.03561 6.18531 6.06936 6.11031 6.13686 6.05031L6.64311 5.54406C6.70686 5.47656 6.78186 5.44281 6.86811 5.44281C6.95436 5.44281 7.03311 5.47656 7.10436 5.54406L11.7956 10.2297C11.8631 10.2972 11.8969 10.3759 11.8969 10.4659Z" fill="#FDFDFD"/>
</g>
<defs>
<clipPath id="clip0_26_925">
<rect width="18.0001" height="18" fill="white" transform="translate(0 0.909058)"/>
</clipPath>
</defs>
</svg>
