<svg width="17" height="17" viewBox="0 0 17 17" fill="none" xmlns="http://www.w3.org/2000/svg">
<g clip-path="url(#clip0_70_723)">
<path d="M8.63923 14.8923C12.3432 14.8923 15.3458 11.8896 15.3458 8.18568C15.3458 4.48172 12.3432 1.47906 8.63923 1.47906C4.93527 1.47906 1.93262 4.48172 1.93262 8.18568C1.93262 11.8896 4.93527 14.8923 8.63923 14.8923Z" fill="#FDFDFD"/>
<path fill-rule="evenodd" clip-rule="evenodd" d="M8.63931 0.361587C8.84818 0.360435 9.057 0.367893 9.26526 0.383942L9.42174 0.39512L9.70119 0.428653H9.72354L9.76825 0.43983L10.0142 0.484541L10.1595 0.506896L10.316 0.54043L10.4613 0.573963L10.7295 0.641029L10.819 0.674562L11.076 0.752806L11.1208 0.763983L11.7132 0.987537L11.7467 0.998715C12.8086 1.46818 13.7587 2.15002 14.5076 3.0107C14.7646 3.29569 14.9964 3.60236 15.2006 3.92727L15.29 4.07258L15.3571 4.18436C15.8266 4.96679 16.1619 5.84983 16.3296 6.77758L16.3519 6.85582C16.4636 7.5392 16.4899 8.23383 16.4302 8.92369C16.3234 10.0685 15.9646 11.1755 15.3794 12.1652L15.3459 12.2211L15.2565 12.3664L15.3683 12.1652L15.1447 12.5453L15.1112 12.59L14.6976 13.1489L14.6529 13.1824C14.5188 13.3612 14.3623 13.5177 14.2058 13.6854L14.1499 13.7413L14.0158 13.8754L13.5687 14.2666L13.4904 14.3225L13.278 14.4902L13.2333 14.5125V14.5237L12.9539 14.7137L13.2333 14.5125C12.6575 14.9276 12.03 15.2658 11.3667 15.5185L11.3108 15.5409L11.0649 15.6303L10.9978 15.6527C10.8612 15.6944 10.7233 15.7317 10.5842 15.7644L10.4054 15.8091C9.26235 16.0754 8.07384 16.0792 6.92912 15.8203L6.86205 15.8091L6.69439 15.7644L6.59379 15.7421L6.56026 15.7309C6.47031 15.7066 6.38088 15.6806 6.29199 15.6527L6.19139 15.6191L5.96784 15.5409L5.90077 15.5185C5.81075 15.4827 5.72132 15.4455 5.63251 15.4068H5.59898C5.04009 15.1608 4.52592 14.8702 4.05646 14.5237H4.04528L4.00057 14.4902L3.77701 14.3113L4.04528 14.5125C3.71911 14.2769 3.41258 14.0153 3.12871 13.7301L3.07282 13.6854C2.91606 13.5248 2.76686 13.3569 2.62571 13.1824L2.581 13.1377C1.59648 11.937 0.993156 10.4696 0.848459 8.92369C0.803769 8.42542 0.803769 7.92415 0.848459 7.42588L0.870815 7.28057L0.881993 7.15762L0.926703 6.85582L0.949059 6.73287C1.1279 5.8163 1.45205 4.95562 1.92152 4.18436L1.98858 4.07258L2.078 3.92727C2.9141 2.63344 4.11648 1.61784 5.53191 1.00989L5.57662 0.987537L6.14668 0.763983L6.21375 0.752806L6.47084 0.663384L6.5379 0.652206L6.81734 0.573963C6.87323 0.573963 6.91794 0.551607 6.96265 0.54043L7.11914 0.506896L7.26445 0.484541L7.52154 0.43983H7.5886L7.85687 0.39512H8.01336C8.22091 0.36874 8.43012 0.357533 8.63931 0.361587ZM10.7407 1.81469L9.13112 3.10012C9.00573 3.19988 8.85273 3.25873 8.69281 3.26873C8.53289 3.27872 8.37375 3.23938 8.23691 3.15601L8.14749 3.10012L6.5379 1.81469C5.21025 2.25478 4.05343 3.09895 3.22931 4.22907L3.95586 6.15163C4.01288 6.30229 4.022 6.46688 3.98199 6.62292C3.94198 6.77896 3.85478 6.91885 3.7323 7.02349L3.65406 7.0682L1.93269 8.20832V8.43188C1.98193 9.75721 2.42562 11.0377 3.20695 12.1093L5.25247 12.0087C5.41321 12.001 5.57244 12.0429 5.70846 12.1289C5.84448 12.215 5.95066 12.3408 6.01255 12.4894L6.04608 12.59L6.59379 14.5684C7.92348 14.999 9.35514 14.999 10.6848 14.5684L11.2325 12.59C11.2756 12.4353 11.3652 12.2977 11.4892 12.1957C11.6132 12.0937 11.7655 12.0324 11.9255 12.0199H12.0261L14.0828 12.1093C14.9035 10.9741 15.3455 9.60911 15.3459 8.20832L13.6246 7.07938C13.4889 6.99141 13.3838 6.86358 13.3238 6.71346C13.2637 6.56334 13.2517 6.39831 13.2892 6.24105L13.3228 6.15163L14.0493 4.22907C13.2247 3.09949 12.068 2.25545 10.7407 1.81469ZM9.08641 5.39155L11.1431 6.87818C11.4114 7.07938 11.5343 7.43706 11.4225 7.76122L10.6401 10.1756C10.5887 10.3309 10.4899 10.4662 10.3575 10.5625C10.2252 10.6587 10.066 10.7111 9.90238 10.7121H7.36505C7.20142 10.7111 7.04224 10.6587 6.90991 10.5625C6.77758 10.4662 6.67875 10.3309 6.62732 10.1756L5.84488 7.76122C5.794 7.60495 5.79362 7.43664 5.84377 7.28015C5.89393 7.12365 5.99209 6.98693 6.12433 6.88936L8.18102 5.39155C8.31439 5.29517 8.47476 5.24329 8.63931 5.24329C8.80386 5.24329 8.96422 5.29517 9.09759 5.39155H9.08641Z" fill="#222222"/>
</g>
<defs>
<clipPath id="clip0_70_723">
<rect width="16.7665" height="15.6488" fill="white" transform="translate(0.11084 0.361572)"/>
</clipPath>
</defs>
</svg>
