<svg width="47" height="36" viewBox="0 0 47 36" fill="none" xmlns="http://www.w3.org/2000/svg">
<path d="M41.7788 0.460025H11.9919C11.0589 0.460335 10.1511 0.763462 9.40513 1.32385C8.65913 1.88423 8.11516 2.6716 7.85498 3.56762L0.170938 30.029C-0.0154321 30.6708 -0.0499614 31.3472 0.0700792 32.0047C0.19012 32.6621 0.46144 33.2827 0.862594 33.8172C1.26375 34.3518 1.78374 34.7857 2.38147 35.0847C2.97919 35.3837 3.63827 35.5395 4.30661 35.5399H34.1021C35.0354 35.5399 35.9434 35.2369 36.6896 34.6765C37.4359 34.1161 37.98 33.3286 38.2403 32.4323L45.9218 5.97097C46.1084 5.32854 46.1428 4.65151 46.0224 3.99348C45.9019 3.33545 45.63 2.7145 45.228 2.17979C44.826 1.64508 44.305 1.21131 43.7064 0.912809C43.1077 0.614311 42.4477 0.459291 41.7788 0.460025ZM34.7313 22.5715C34.543 23.136 34.1906 23.6316 33.7192 23.9948C33.2801 24.3389 32.7381 24.5253 32.1802 24.5242H21.6668C22.4211 22.4262 23.0922 20.5572 23.6799 18.9172C23.9343 18.2122 24.1805 17.521 24.4186 16.8439C24.6304 16.248 24.8237 15.7124 24.9985 15.2322H14.2241L13.787 16.456H22.6272L21.0869 20.7653L20.4356 22.5715C20.2401 23.134 19.8866 23.6281 19.4174 23.9948C18.9808 24.3393 18.4406 24.5259 17.8845 24.5242H7.37111L8.39795 21.6616C8.4849 21.4041 8.64647 21.1782 8.86212 21.0128C9.06223 20.8534 9.31052 20.7665 9.56638 20.7665H17.5693L18.0039 19.5452H9.16007L11.3578 13.4014C11.4583 13.12 11.5975 12.8539 11.7715 12.6109C11.9359 12.3764 12.1357 12.1687 12.3637 11.9953C12.5821 11.8279 12.8262 11.6969 13.0864 11.6075C13.3425 11.5183 13.6118 11.4729 13.883 11.4733H29.8384L26.4846 20.7628H31.4562C31.5873 20.7637 31.7149 20.7203 31.8182 20.6397C31.9328 20.5493 32.0184 20.4273 32.0645 20.2888L34.9184 12.3696C35.0072 12.112 35.1699 11.8863 35.3863 11.7208C35.5861 11.5617 35.8339 11.4749 36.0893 11.4745H38.7192L34.7313 22.5715Z" fill="#9FE870"/>
</svg>
